<svg width="21" height="20" viewBox="0 0 21 20" fill="none" xmlns="http://www.w3.org/2000/svg">
<path d="M18.8067 15.2752C18.8067 15.5752 18.74 15.8835 18.5984 16.1835C18.4567 16.4835 18.2734 16.7668 18.0317 17.0335C17.6234 17.4835 17.1734 17.8085 16.665 18.0168C16.165 18.2252 15.6234 18.3335 15.04 18.3335C14.19 18.3335 13.2817 18.1335 12.3234 17.7252C11.365 17.3168 10.4067 16.7668 9.45671 16.0752C8.49837 15.3752 7.59004 14.6002 6.72337 13.7418C5.86504 12.8752 5.09004 11.9668 4.39837 11.0168C3.71504 10.0668 3.16504 9.11682 2.76504 8.17516C2.36504 7.22516 2.16504 6.31682 2.16504 5.45016C2.16504 4.88349 2.26504 4.34182 2.46504 3.84182C2.66504 3.33349 2.98171 2.86682 3.42337 2.45016C3.95671 1.92516 4.54004 1.66682 5.15671 1.66682C5.39004 1.66682 5.62337 1.71682 5.83171 1.81682C6.04837 1.91682 6.24004 2.06682 6.39004 2.28349L8.32337 5.00849C8.47337 5.21682 8.58171 5.40849 8.65671 5.59182C8.73171 5.76682 8.77337 5.94182 8.77337 6.10016C8.77337 6.30016 8.71504 6.50016 8.59837 6.69182C8.49004 6.88349 8.33171 7.08349 8.13171 7.28349L7.49837 7.94182C7.40671 8.03349 7.36504 8.14182 7.36504 8.27516C7.36504 8.34182 7.37337 8.40016 7.39004 8.46682C7.41504 8.53349 7.44004 8.58349 7.45671 8.63349C7.60671 8.90849 7.86504 9.26682 8.23171 9.70016C8.60671 10.1335 9.00671 10.5752 9.44004 11.0168C9.89004 11.4585 10.3234 11.8668 10.765 12.2418C11.1984 12.6085 11.5567 12.8585 11.84 13.0085C11.8817 13.0252 11.9317 13.0502 11.99 13.0752C12.0567 13.1002 12.1234 13.1085 12.1984 13.1085C12.34 13.1085 12.4484 13.0585 12.54 12.9668L13.1734 12.3418C13.3817 12.1335 13.5817 11.9752 13.7734 11.8752C13.965 11.7585 14.1567 11.7002 14.365 11.7002C14.5234 11.7002 14.69 11.7335 14.8734 11.8085C15.0567 11.8835 15.2484 11.9918 15.4567 12.1335L18.215 14.0918C18.4317 14.2418 18.5817 14.4168 18.6734 14.6252C18.7567 14.8335 18.8067 15.0418 18.8067 15.2752Z" stroke="#686069" stroke-width="1.25" stroke-miterlimit="10"/>
</svg>
