<svg width="17" height="17" viewBox="0 0 17 17" fill="currentColor" xmlns="http://www.w3.org/2000/svg">
<path fill-rule="evenodd" clip-rule="evenodd" d="M3.30371 4.48645L3.80621 10.4631C3.84288 10.9231 4.21871 11.2681 4.67788 11.2681H4.68121H13.7737H13.7754C14.2095 11.2681 14.5804 10.9448 14.642 10.5156L15.4337 5.04978C15.452 4.91978 15.4195 4.78978 15.3404 4.68478C15.262 4.57895 15.147 4.51062 15.017 4.49228C14.8429 4.49895 7.61538 4.48895 3.30371 4.48645ZM4.67658 12.5182C3.57908 12.5182 2.64992 11.6615 2.56075 10.5657L1.79742 1.48735L0.541582 1.27068C0.200749 1.21068 -0.0267515 0.888179 0.0315818 0.547346C0.0915818 0.206513 0.420749 -0.015154 0.754082 0.0381793L2.48742 0.338179C2.76658 0.387346 2.97908 0.619013 3.00325 0.902346L3.19908 3.23651C15.0957 3.24151 15.1341 3.24735 15.1916 3.25401C15.6558 3.32151 16.0641 3.56401 16.3424 3.93735C16.6208 4.30985 16.7374 4.76901 16.6708 5.22901L15.8799 10.694C15.7308 11.734 14.8274 12.5182 13.7774 12.5182H13.7732H4.68325H4.67658Z" fill="currentColor"/>
<path fill-rule="evenodd" clip-rule="evenodd" d="M12.437 7.56665H10.127C9.78112 7.56665 9.50195 7.28665 9.50195 6.94165C9.50195 6.59665 9.78112 6.31665 10.127 6.31665H12.437C12.782 6.31665 13.062 6.59665 13.062 6.94165C13.062 7.28665 12.782 7.56665 12.437 7.56665Z" fill="currentColor"/>
<path fill-rule="evenodd" clip-rule="evenodd" d="M4.31745 14.782C4.56828 14.782 4.77078 14.9845 4.77078 15.2353C4.77078 15.4861 4.56828 15.6895 4.31745 15.6895C4.06578 15.6895 3.86328 15.4861 3.86328 15.2353C3.86328 14.9845 4.06578 14.782 4.31745 14.782Z" fill="currentColor"/>
<mask id="mask0_8718_12512" style="mask-type:luminance" maskUnits="userSpaceOnUse" x="3" y="14" width="2" height="2">
<path fill-rule="evenodd" clip-rule="evenodd" d="M3.86133 15.2348C3.86133 15.4865 4.06383 15.6898 4.31633 15.6898C4.56716 15.6898 4.76966 15.4865 4.76966 15.2348C4.76966 14.984 4.56716 14.7815 4.31633 14.7815C4.06383 14.7815 3.86133 14.984 3.86133 15.2348Z" fill="currentColor"/>
</mask>
<g mask="url(#mask0_8718_12512)">
<path fill-rule="evenodd" clip-rule="evenodd" d="M-0.305664 19.8556H8.93517V10.6147H-0.305664V19.8556Z" fill="currentColor"/>
</g>
<path fill-rule="evenodd" clip-rule="evenodd" d="M4.31371 15.0642C4.21954 15.0642 4.14288 15.1409 4.14288 15.2351C4.14288 15.4242 4.48538 15.4242 4.48538 15.2351C4.48538 15.1409 4.40788 15.0642 4.31371 15.0642ZM4.31173 16.3142C3.71673 16.3142 3.2334 15.8301 3.2334 15.2351C3.2334 14.6401 3.71673 14.1567 4.31173 14.1567C4.90673 14.1567 5.3909 14.6401 5.3909 15.2351C5.3909 15.8301 4.90673 16.3142 4.31173 16.3142Z" fill="currentColor"/>
<path fill-rule="evenodd" clip-rule="evenodd" d="M13.7159 14.7817C13.9667 14.7817 14.1701 14.9842 14.1701 15.2351C14.1701 15.4859 13.9667 15.6892 13.7159 15.6892C13.4642 15.6892 13.2617 15.4859 13.2617 15.2351C13.2617 14.9842 13.4642 14.7817 13.7159 14.7817Z" fill="currentColor"/>
<mask id="mask1_8718_12512" style="mask-type:luminance" maskUnits="userSpaceOnUse" x="13" y="14" width="2" height="2">
<path fill-rule="evenodd" clip-rule="evenodd" d="M13.2646 15.2351C13.2646 15.4867 13.4671 15.6901 13.7188 15.6901C13.9688 15.6901 14.173 15.4867 14.173 15.2351C14.173 14.9842 13.9688 14.7817 13.7188 14.7817C13.4671 14.7817 13.2646 14.9842 13.2646 15.2351Z" fill="currentColor"/>
</mask>
<g mask="url(#mask1_8718_12512)">
<path fill-rule="evenodd" clip-rule="evenodd" d="M9.09766 19.8558H18.3393V10.615H9.09766V19.8558Z" fill="currentColor"/>
</g>
<path fill-rule="evenodd" clip-rule="evenodd" d="M13.7195 15.0644C13.6262 15.0644 13.5495 15.1411 13.5495 15.2353C13.5504 15.4261 13.892 15.4244 13.8912 15.2353C13.8912 15.1411 13.8137 15.0644 13.7195 15.0644ZM13.718 16.3145C13.123 16.3145 12.6396 15.8303 12.6396 15.2353C12.6396 14.6403 13.123 14.157 13.718 14.157C14.3138 14.157 14.798 14.6403 14.798 15.2353C14.798 15.8303 14.3138 16.3145 13.718 16.3145Z" fill="currentColor"/>
</svg>
