<svg width="18" height="18" viewBox="0 0 18 18" fill="none" xmlns="http://www.w3.org/2000/svg">
<path d="M16.5 17.0625H1.5C1.1925 17.0625 0.9375 16.8075 0.9375 16.5C0.9375 16.1925 1.1925 15.9375 1.5 15.9375H16.5C16.8075 15.9375 17.0625 16.1925 17.0625 16.5C17.0625 16.8075 16.8075 17.0625 16.5 17.0625Z" fill="#B6349A"/>
<path d="M2.77344 16.5H1.64844L1.68594 7.47753C1.68594 6.84003 1.97844 6.24755 2.48094 5.85755L7.73094 1.77004C8.47344 1.19254 9.51594 1.19254 10.2659 1.77004L15.5159 5.85004C16.0109 6.24004 16.3109 6.84753 16.3109 7.47753V16.5H15.1859V7.48504C15.1859 7.20004 15.0509 6.92254 14.8259 6.74254L9.57594 2.66254C9.23844 2.40004 8.76594 2.40004 8.42094 2.66254L3.17094 6.75005C2.94594 6.92255 2.81094 7.20004 2.81094 7.48504L2.77344 16.5Z" fill="#B6349A"/>
<path d="M12.75 17.0625H5.25C4.9425 17.0625 4.6875 16.8075 4.6875 16.5V9.375C4.6875 8.445 5.445 7.6875 6.375 7.6875H11.625C12.555 7.6875 13.3125 8.445 13.3125 9.375V16.5C13.3125 16.8075 13.0575 17.0625 12.75 17.0625ZM5.8125 15.9375H12.1875V9.375C12.1875 9.0675 11.9325 8.8125 11.625 8.8125H6.375C6.0675 8.8125 5.8125 9.0675 5.8125 9.375V15.9375Z" fill="#B6349A"/>
<path d="M7.5 13.875C7.1925 13.875 6.9375 13.62 6.9375 13.3125V12.1875C6.9375 11.88 7.1925 11.625 7.5 11.625C7.8075 11.625 8.0625 11.88 8.0625 12.1875V13.3125C8.0625 13.62 7.8075 13.875 7.5 13.875Z" fill="#B6349A"/>
<path d="M10.125 6.1875H7.875C7.5675 6.1875 7.3125 5.9325 7.3125 5.625C7.3125 5.3175 7.5675 5.0625 7.875 5.0625H10.125C10.4325 5.0625 10.6875 5.3175 10.6875 5.625C10.6875 5.9325 10.4325 6.1875 10.125 6.1875Z" fill="#B6349A"/>
</svg>
