<svg width="12" height="14" viewBox="0 0 12 14" fill="none" xmlns="http://www.w3.org/2000/svg">
<path fill-rule="evenodd" clip-rule="evenodd" d="M6.1676 4.66648C5.52427 4.66648 5.00094 5.18982 5.00094 5.83382C5.00094 6.47715 5.52427 6.99982 6.1676 6.99982C6.81094 6.99982 7.33427 6.47715 7.33427 5.83382C7.33427 5.18982 6.81094 4.66648 6.1676 4.66648ZM6.16764 7.99984C4.97298 7.99984 4.00098 7.0285 4.00098 5.83384C4.00098 4.6385 4.97298 3.6665 6.16764 3.6665C7.36231 3.6665 8.33431 4.6385 8.33431 5.83384C8.33431 7.0285 7.36231 7.99984 6.16764 7.99984Z" fill="#B6349A"/>
<mask id="mask0_8718_12542" style="mask-type:luminance" maskUnits="userSpaceOnUse" x="0" y="0" width="12" height="14">
<path fill-rule="evenodd" clip-rule="evenodd" d="M0.666992 0.333252H11.6667V13.3333H0.666992V0.333252Z" fill="white"/>
</mask>
<g mask="url(#mask0_8718_12542)">
<path fill-rule="evenodd" clip-rule="evenodd" d="M6.16622 1.33327C3.68489 1.33327 1.66622 3.37127 1.66622 5.87527C1.66622 9.06127 5.41555 12.1653 6.16622 12.3306C6.91689 12.1646 10.6662 9.06061 10.6662 5.87527C10.6662 3.37127 8.64755 1.33327 6.16622 1.33327ZM6.16602 13.3333C4.97002 13.3333 0.666016 9.63192 0.666016 5.87525C0.666016 2.81925 3.13335 0.333252 6.16602 0.333252C9.19868 0.333252 11.666 2.81925 11.666 5.87525C11.666 9.63192 7.36202 13.3333 6.16602 13.3333Z" fill="#B6349A"/>
</g>
</svg>
