<svg width="24" height="16" viewBox="0 0 24 16" fill="none" xmlns="http://www.w3.org/2000/svg">
<path d="M2.59227 10.5515C2.59227 11.4713 2.79334 12.1774 3.05632 12.6046C3.40104 13.1642 3.91515 13.4017 4.43932 13.4017C5.11528 13.4017 5.73375 13.2333 6.92553 11.5789C7.88057 10.2529 9.0054 8.39157 9.7624 7.22468L11.0444 5.24776C11.9349 3.87483 12.9656 2.34863 14.1474 1.31411C15.1125 0.46969 16.153 0.000610352 17.2004 0.000610352C18.959 0.000610352 20.634 1.02342 21.916 2.94172C23.319 5.04253 24 7.68881 24 10.4195C24 12.043 23.6812 13.2358 23.1387 14.1782C22.6146 15.0896 21.593 16.0002 19.8745 16.0002V13.4013C21.346 13.4013 21.7131 12.0442 21.7131 10.4912C21.7131 8.27806 21.199 5.82208 20.0665 4.06714C19.2628 2.82235 18.2212 2.06177 17.0753 2.06177C15.8358 2.06177 14.8385 3.00014 13.7176 4.67274C13.1216 5.56156 12.5099 6.64461 11.823 7.8668L11.0668 9.21128C9.54797 11.9149 9.16314 12.5303 8.40363 13.5462C7.07251 15.3253 5.93571 15.9998 4.43932 15.9998C2.66405 15.9998 1.54153 15.2282 0.846264 14.0655C0.27877 13.1182 0 11.875 0 10.4586L2.59227 10.5515Z" fill="#B6349A"/>
<path d="M2.04395 3.12454C3.23241 1.28586 4.94756 0 6.91474 0C8.05395 0 9.18672 0.338415 10.3692 1.30765C11.6628 2.36709 13.0416 4.11264 14.7617 6.98826L15.3785 8.01996C16.8674 10.5095 17.7145 11.7904 18.2103 12.3943C18.8479 13.1699 19.2944 13.4012 19.8745 13.4012C21.346 13.4012 21.7131 12.0441 21.7131 10.4911L24 10.419C24 12.0425 23.6812 13.2353 23.1386 14.1777C22.6146 15.089 21.593 15.9997 19.8745 15.9997C18.8062 15.9997 17.8598 15.7668 16.8132 14.7758C16.0089 14.0152 15.0679 12.664 14.3443 11.4494L12.1919 7.84076C11.112 6.02972 10.121 4.67939 9.54793 4.06784C8.93108 3.41018 8.13819 2.61611 6.87292 2.61611C5.84892 2.61611 4.97923 3.33734 4.25149 4.44057L2.04395 3.12454Z" fill="#B6349A"/>
<path d="M6.87296 2.61611C5.84895 2.61611 4.97927 3.33734 4.25153 4.44056C3.2224 5.99945 2.59278 8.32144 2.59278 10.5513C2.59278 11.4711 2.79384 12.1772 3.05683 12.6044L0.846264 14.0653C0.278771 13.118 0 11.8748 0 10.4584C0 7.88253 0.704416 5.19781 2.04398 3.12454C3.23245 1.28586 4.9476 0 6.91478 0L6.87296 2.61611Z" fill="#B6349A"/>
</svg>
